<?xml version="1.0"?>
<svg xmlns="http://www.w3.org/2000/svg" id="Capa_1" enable-background="new 0 0 512.039 512.039" height="512px" viewBox="0 0 512.039 512.039" width="512px"><g><g><path d="m248.69 296.459c-4.143 0-7.5 3.358-7.5 7.5s3.357 7.5 7.5 7.5h14.64c4.143 0 7.5-3.358 7.5-7.5s-3.357-7.5-7.5-7.5z" data-original="#000000" class="active-path" data-old_color="#000000" fill="#AC38FF"/><path d="m222.578 244.789c-4.143 0-7.5 3.358-7.5 7.5s3.357 7.5 7.5 7.5h6.699c4.143 0 7.5-3.358 7.5-7.5s-3.357-7.5-7.5-7.5z" data-original="#000000" class="active-path" data-old_color="#000000" fill="#AC38FF"/><path d="m282.741 244.789c-4.143 0-7.5 3.358-7.5 7.5s3.357 7.5 7.5 7.5h6.699c4.143 0 7.5-3.358 7.5-7.5s-3.357-7.5-7.5-7.5z" data-original="#000000" class="active-path" data-old_color="#000000" fill="#AC38FF"/><path d="m330.411 236.237c0 13.011 10.585 23.597 23.597 23.597 3.593 0 6.998-.81 10.049-2.253-1.442 3.051-2.252 6.456-2.252 10.049 0 13.012 10.585 23.597 23.596 23.597 13.012 0 23.598-10.585 23.598-23.597 0-3.592-.81-6.998-2.252-10.049 3.051 1.442 6.456 2.253 10.048 2.253 13.012 0 23.598-10.585 23.598-23.597s-10.586-23.597-23.598-23.597c-3.592 0-6.998.81-10.048 2.252 1.442-3.051 2.252-6.456 2.252-10.048 0-13.012-10.586-23.597-23.598-23.597-13.011 0-23.596 10.585-23.596 23.597 0 3.592.81 6.998 2.252 10.048-3.051-1.442-6.457-2.252-10.049-2.252-13.012 0-23.597 10.586-23.597 23.597zm54.99 39.991c-4.739 0-8.596-3.856-8.596-8.597 0-4.74 3.856-8.597 8.596-8.597 4.741 0 8.598 3.856 8.598 8.597-.001 4.74-3.857 8.597-8.598 8.597zm-10.049-29.942c1.442-3.051 2.252-6.456 2.252-10.049s-.81-6.998-2.252-10.049c3.051 1.442 6.456 2.252 10.048 2.252 3.593 0 6.999-.81 10.05-2.253-1.442 3.051-2.252 6.457-2.252 10.049s.81 6.998 2.253 10.049c-3.051-1.443-6.458-2.253-10.051-2.253-3.592.002-6.997.812-10.048 2.254zm41.442-18.646c4.741 0 8.598 3.856 8.598 8.597 0 4.74-3.856 8.597-8.598 8.597-4.739 0-8.596-3.856-8.596-8.597.001-4.74 3.857-8.597 8.596-8.597zm-31.393-31.393c4.741 0 8.598 3.856 8.598 8.597 0 4.74-3.856 8.597-8.598 8.597-4.739 0-8.596-3.856-8.596-8.597s3.856-8.597 8.596-8.597zm-22.796 39.99c0 4.74-3.856 8.597-8.597 8.597s-8.597-3.856-8.597-8.597 3.856-8.597 8.597-8.597 8.597 3.857 8.597 8.597z" data-original="#000000" class="active-path" data-old_color="#000000" fill="#AC38FF"/><path d="m95.462 257.971h8.893v8.892c0 11.984 9.749 21.733 21.732 21.733s21.733-9.75 21.733-21.733v-8.892h8.893c11.983 0 21.732-9.75 21.732-21.733s-9.749-21.733-21.732-21.733h-8.893v-8.892c0-11.984-9.75-21.733-21.733-21.733s-21.732 9.75-21.732 21.733v8.892h-8.893c-11.983 0-21.733 9.75-21.733 21.733s9.75 21.733 21.733 21.733zm0-28.467h9.326c8.032 0 14.566-6.534 14.566-14.566v-9.326c0-3.713 3.021-6.733 6.732-6.733 3.713 0 6.733 3.021 6.733 6.733v9.326c0 8.032 6.534 14.566 14.566 14.566h9.326c3.712 0 6.732 3.021 6.732 6.733s-3.021 6.733-6.732 6.733h-9.326c-8.032 0-14.566 6.534-14.566 14.566v9.326c0 3.713-3.021 6.733-6.733 6.733s-6.732-3.021-6.732-6.733v-9.326c0-8.032-6.534-14.566-14.566-14.566h-9.326c-3.713 0-6.733-3.021-6.733-6.733s3.02-6.733 6.733-6.733z" data-original="#000000" class="active-path" data-old_color="#000000" fill="#AC38FF"/><path d="m495.264 335.719c-1.821-3.72-6.315-5.261-10.034-3.438-3.721 1.821-5.26 6.313-3.438 10.034l9.349 19.095c14.056 28.708 2.135 63.498-26.571 77.553-28.65 14.025-63.529 2.071-77.552-26.572l-25.867-52.832c1.635-4.459 2.473-9.332 2.473-14.019 0-22.519-18.32-40.84-40.84-40.84-18.433 0-34.157 12.38-39.118 29.109h-55.306c-5.087-17.152-21.122-29.109-39.118-29.109-22.52 0-40.841 18.321-40.841 40.84 0 4.686.834 9.547 2.474 14.019l-25.867 52.832c-14.025 28.646-48.908 40.597-77.552 26.572-28.647-14.027-40.596-48.909-26.571-77.553l41.876-85.529c13.638 21.737 37.617 35.071 63.328 35.071 41.197 0 74.714-33.517 74.714-74.714 0-10.098-2.067-20.48-6.431-30.309 10.676 2.729 21.511 4.104 32.396 4.104h58.489c10.884 0 21.719-1.376 32.392-4.104-4.09 9.213-6.43 19.534-6.43 30.308 0 41.197 33.517 74.714 74.714 74.714 26.422 0 50.091-13.971 63.33-35.075l17.134 34.995c1.82 3.72 6.309 5.26 10.034 3.438 3.721-1.821 5.26-6.313 3.438-10.034l-22.535-46.027c2.15-6.962 3.313-14.353 3.313-22.011 0-41.197-33.517-74.714-74.714-74.714-21.707 0-41.274 9.312-54.937 24.143-14.904 6.21-30.283 9.367-45.739 9.367h-3.033v-7.951c0-9.8-7.973-17.773-17.772-17.773h-.32v-109.614c0-4.142-3.357-7.5-7.5-7.5s-7.5 3.358-7.5 7.5v109.614h-1.562c-9.8 0-17.772 7.973-17.772 17.773v7.951h-3.029c-15.459 0-30.841-3.158-45.746-9.37-13.663-14.829-33.228-24.139-54.933-24.139-41.197 0-74.714 33.517-74.714 74.714 0 7.66 1.163 15.053 3.314 22.016l-47.28 96.559c-17.672 36.093-2.642 79.951 33.448 97.62 36.094 17.673 79.95 2.642 97.62-33.448l21.851-44.629c7.399 7.423 17.627 12.023 28.911 12.023 10.3 0 19.714-3.841 26.906-10.154h22.364c4.143 0 7.5-3.358 7.5-7.5s-3.357-7.5-7.5-7.5h-11.549c1.683-4.042 2.667-8.354 2.99-12.417h52.12c.333 4.22 1.373 8.532 2.99 12.417h-11.551c-4.143 0-7.5 3.358-7.5 7.5s3.357 7.5 7.5 7.5h22.367c7.192 6.314 16.606 10.154 26.906 10.154 11.284 0 21.512-4.601 28.911-12.023l21.851 44.629c17.672 36.094 61.531 51.118 97.62 33.448 36.135-17.692 51.14-61.484 33.448-97.62zm-109.332-159.196c32.927 0 59.714 26.788 59.714 59.714 0 32.792-26.639 59.714-59.714 59.714-32.927 0-59.714-26.788-59.714-59.714 0-32.752 26.618-59.714 59.714-59.714zm-141.136 10.559c0-1.529 1.244-2.773 2.772-2.773h16.882c1.528 0 2.772 1.244 2.772 2.773v7.951h-22.427v-7.951zm-118.709-10.559c32.898 0 59.714 26.744 59.714 59.714 0 32.926-26.787 59.714-59.714 59.714-33.136 0-59.714-27-59.714-59.714 0-32.926 26.787-59.714 59.714-59.714zm37.313 169.017c0-14.248 11.592-25.84 25.841-25.84 13.138 0 24.815 10.085 25.779 24.162.002.034.006.067.008.101.953 14.675-10.822 27.418-25.787 27.418-14.207-.001-25.841-11.568-25.841-25.841zm159.383 25.84c-14.875 0-26.747-12.634-25.787-27.418.002-.034.005-.067.008-.101.939-13.712 12.243-24.162 25.779-24.162 14.248 0 25.84 11.592 25.84 25.84-.001 14.214-11.57 25.841-25.84 25.841z" data-original="#000000" class="active-path" data-old_color="#000000" fill="#AC38FF"/></g></g> </svg>
