<?xml version="1.0"?>
<svg xmlns="http://www.w3.org/2000/svg" id="Capa_1" enable-background="new 0 0 512 512" height="512px" viewBox="0 0 512 512" width="512px"><g><g><path d="m504.391 293.699-10.125-28.345c-1.386-3.88-5.657-5.901-9.535-4.516-3.88 1.386-5.901 5.655-4.515 9.535l10.125 28.345c12.683 35.507 7.26 75.086-14.508 105.874-6.602 9.338-16.948 14.717-28.385 14.757-11.448.035-21.821-5.265-28.488-14.558l-53.487-74.536c-8.014-11.168-21.004-17.835-34.749-17.835h-149.398c-13.746 0-26.737 6.667-34.75 17.835l-53.487 74.536c-6.642 9.257-16.973 14.558-28.359 14.558-.043 0-.085 0-.128 0-11.437-.04-21.783-5.419-28.385-14.757-1.286-1.819-2.534-3.696-3.71-5.58-2.182-3.496-6.784-4.562-10.278-2.381-3.496 2.181-4.561 6.782-2.381 10.278 1.327 2.126 2.734 4.245 4.186 6.297 9.424 13.329 24.192 21.006 40.515 21.063h.184c16.251 0 30.997-7.567 40.478-20.779l53.487-74.536c5.218-7.272 13.677-11.613 22.628-11.613h149.398c8.95 0 17.409 4.341 22.627 11.613l53.487 74.536c9.482 13.213 24.227 20.78 40.478 20.779h.185c16.324-.057 31.091-7.734 40.515-21.063 24.57-34.753 30.692-79.428 16.375-119.507z" data-original="#000000" class="active-path" data-old_color="#000000" fill="#AC38FF"/><path d="m19.4 369.48c-6.67-23.391-5.872-47.86 2.309-70.762l53.854-150.761c11.817-33.08 43.356-55.305 78.483-55.305h203.958c35.126 0 66.666 22.225 78.484 55.305l32.35 90.563c1.386 3.881 5.654 5.902 9.535 4.516 3.88-1.386 5.901-5.655 4.515-9.535l-32.35-90.563c-13.932-39.001-51.119-65.206-92.533-65.206h-203.96c-41.416 0-78.601 26.204-92.532 65.206l-53.854 150.761c-9.235 25.851-10.136 53.471-2.608 79.873 2.573 9.384 17.128 5.147 14.349-4.092z" data-original="#000000" class="active-path" data-old_color="#000000" fill="#AC38FF"/><path d="m131.742 215.586h20.714c7.451 0 13.514-6.062 13.514-13.514v-13.773h13.774c7.451 0 13.514-6.062 13.514-13.514v-20.714c0-7.451-6.062-13.514-13.514-13.514h-13.774v-13.773c0-7.451-6.062-13.514-13.514-13.514h-20.714c-7.451 0-13.514 6.062-13.514 13.514v13.773h-13.773c-7.451 0-13.514 6.062-13.514 13.514v20.714c0 7.451 6.062 13.514 13.514 13.514h13.773v13.773c0 7.452 6.062 13.514 13.514 13.514zm-25.88-42.207v-17.901h17.809c5.226 0 9.478-4.252 9.478-9.478v-17.809h17.901v17.809c0 5.226 4.252 9.478 9.478 9.478h17.81v17.901h-17.81c-5.226 0-9.478 4.252-9.478 9.478v17.809h-17.901v-17.809c0-5.226-4.252-9.478-9.478-9.478z" data-original="#000000" class="active-path" data-old_color="#000000" fill="#AC38FF"/><path d="m369.531 125.033c-6.77 0-12.258 5.488-12.258 12.258s5.488 12.258 12.258 12.258 12.258-5.488 12.258-12.258-5.488-12.258-12.258-12.258z" data-original="#000000" class="active-path" data-old_color="#000000" fill="#AC38FF"/><path d="m369.531 204.029c6.77 0 12.258-5.488 12.258-12.258s-5.488-12.258-12.258-12.258-12.258 5.488-12.258 12.258 5.488 12.258 12.258 12.258z" data-original="#000000" class="active-path" data-old_color="#000000" fill="#AC38FF"/><circle cx="396.771" cy="164.531" r="12.258" data-original="#000000" class="active-path" data-old_color="#000000" fill="#AC38FF"/><path d="m354.549 164.531c0-6.77-5.488-12.258-12.258-12.258s-12.258 5.488-12.258 12.258 5.488 12.258 12.258 12.258 12.258-5.488 12.258-12.258z" data-original="#000000" class="active-path" data-old_color="#000000" fill="#AC38FF"/><path d="m316.605 297.36c24.361 0 44.18-19.819 44.18-44.18s-19.819-44.18-44.18-44.18-44.18 19.819-44.18 44.18 19.819 44.18 44.18 44.18zm0-73.44c16.134 0 29.26 13.126 29.26 29.26s-13.126 29.26-29.26 29.26-29.26-13.126-29.26-29.26 13.126-29.26 29.26-29.26z" data-original="#000000" class="active-path" data-old_color="#000000" fill="#AC38FF"/><path d="m204.257 282.44c-4.391 0-8.608-.946-12.536-2.812-3.719-1.766-8.17-.184-9.939 3.537-1.768 3.722-.185 8.172 3.538 9.939 5.943 2.823 12.315 4.255 18.938 4.255 24.361 0 44.18-19.819 44.18-44.18s-19.82-44.181-44.18-44.181-44.18 19.82-44.18 44.181c0 2.181.161 4.375.479 6.519.603 4.076 4.407 6.888 8.472 6.287 4.076-.604 6.891-4.397 6.287-8.472-.211-1.424-.318-2.882-.318-4.334 0-16.134 13.126-29.261 29.26-29.261s29.26 13.126 29.26 29.261-13.127 29.261-29.261 29.261z" data-original="#000000" class="active-path" data-old_color="#000000" fill="#AC38FF"/><g><path d="m256.185 184.821c-16.176 0-29.336-13.16-29.336-29.336s13.16-29.336 29.336-29.336 29.336 13.16 29.336 29.336-13.161 29.336-29.336 29.336zm0-43.672c-7.905 0-14.336 6.431-14.336 14.336s6.431 14.336 14.336 14.336 14.336-6.431 14.336-14.336-6.431-14.336-14.336-14.336z" data-original="#000000" class="active-path" data-old_color="#000000" fill="#AC38FF"/></g></g></g> </svg>
