<?xml version="1.0"?>
<svg xmlns="http://www.w3.org/2000/svg" id="Capa_1" enable-background="new 0 0 512 512" height="512px" viewBox="0 0 512 512" width="512px"><g><g><path d="m58.068 235.497c15.079 0 27.347-12.268 27.347-27.347 0-15.08-12.268-27.348-27.347-27.348-15.08 0-27.348 12.268-27.348 27.348 0 15.079 12.268 27.347 27.348 27.347zm0-39.666c6.792 0 12.318 5.526 12.318 12.318s-5.526 12.318-12.318 12.318c-6.793 0-12.319-5.526-12.319-12.318.001-6.792 5.526-12.318 12.319-12.318z" data-original="#000000" class="active-path" data-old_color="#000000" fill="#AC38FF"/><path d="m455.205 235.497c15.079 0 27.347-12.268 27.347-27.347 0-15.08-12.268-27.348-27.347-27.348-15.08 0-27.348 12.268-27.348 27.348 0 15.079 12.268 27.347 27.348 27.347zm0-39.666c6.792 0 12.318 5.526 12.318 12.318s-5.526 12.318-12.318 12.318c-6.793 0-12.318-5.526-12.318-12.318-.001-6.792 5.525-12.318 12.318-12.318z" data-original="#000000" class="active-path" data-old_color="#000000" fill="#AC38FF"/><path d="m455.205 276.503c-15.08 0-27.348 12.268-27.348 27.347 0 15.08 12.268 27.348 27.348 27.348 15.079 0 27.347-12.268 27.347-27.348 0-15.079-12.268-27.347-27.347-27.347zm0 39.666c-6.793 0-12.318-5.526-12.318-12.319 0-6.792 5.526-12.318 12.318-12.318s12.318 5.526 12.318 12.318c0 6.793-5.526 12.319-12.318 12.319z" data-original="#000000" class="active-path" data-old_color="#000000" fill="#AC38FF"/><path d="m58.068 276.503c-15.08 0-27.348 12.268-27.348 27.347 0 15.08 12.268 27.348 27.348 27.348 15.079 0 27.347-12.268 27.347-27.348 0-15.079-12.268-27.347-27.347-27.347zm0 39.666c-6.793 0-12.319-5.526-12.319-12.319 0-6.792 5.526-12.318 12.319-12.318 6.792 0 12.318 5.526 12.318 12.318 0 6.793-5.526 12.319-12.318 12.319z" data-original="#000000" class="active-path" data-old_color="#000000" fill="#AC38FF"/><path d="m179.325 368.352h-64.462v-224.704h64.462c4.15 0 7.515-3.364 7.515-7.515 0-4.15-3.365-7.515-7.515-7.515h-121.712c-31.768.001-57.613 25.846-57.613 57.614v139.536c0 31.768 25.845 57.613 57.613 57.613h121.712c4.15 0 7.515-3.365 7.515-7.515s-3.365-7.514-7.515-7.514zm-164.296-42.584v-139.536c0-23.481 19.103-42.584 42.584-42.584h42.221v224.704h-42.221c-23.481 0-42.584-19.103-42.584-42.584z" data-original="#000000" class="active-path" data-old_color="#000000" fill="#AC38FF"/><path d="m332.83 337.219c-4.15 0-7.515 3.365-7.515 7.515s3.364 7.515 7.515 7.515h41.563c4.15 0 7.515-3.364 7.515-7.515v-177.467c0-4.15-3.364-7.515-7.515-7.515h-236.786c-4.15 0-7.515 3.364-7.515 7.515v177.467c0 4.15 3.364 7.515 7.515 7.515h165.164c4.15 0 7.515-3.364 7.515-7.515s-3.365-7.515-7.515-7.515h-157.65v-162.438h221.756v162.437h-34.047z" data-original="#000000" class="active-path" data-old_color="#000000" fill="#AC38FF"/><path d="m454.387 128.619h-245.003c-4.15 0-7.515 3.365-7.515 7.515s3.365 7.515 7.515 7.515h187.753v224.704h-187.753c-4.15 0-7.515 3.364-7.515 7.515s3.365 7.515 7.515 7.515h245.003c31.768 0 57.613-25.845 57.613-57.613v-139.538c0-31.768-25.845-57.613-57.613-57.613zm42.584 197.149c0 23.481-19.103 42.584-42.584 42.584h-42.221v-224.704h42.221c23.481 0 42.584 19.103 42.584 42.584z" data-original="#000000" class="active-path" data-old_color="#000000" fill="#AC38FF"/></g></g> </svg>
